<?xml version="1.0" encoding="utf-8"?>
<!-- Generator: Adobe Illustrator 28.2.0, SVG Export Plug-In . SVG Version: 6.00 Build 0)  -->
<svg version="1.1" id="Layer_1" xmlns="http://www.w3.org/2000/svg" xmlns:xlink="http://www.w3.org/1999/xlink" x="0px" y="0px"
	 viewBox="0 0 36 36" style="enable-background:new 0 0 36 36;" xml:space="preserve">
<style type="text/css">
	.st0{fill:#df091b;}
	.st1{fill:#d5c264;}
</style>
<g>
	<g>
		<path class="st0" d="M27.25,14.04c0-0.53,0.24-1.01,0.63-1.36c0.39-0.35,0.92-0.57,1.51-0.57c1.17,0,2.13,0.86,2.13,1.93v6.71
			c0,5.75-1.61,14.22-9.42,14.22c-2.81,0-5.93-0.9-7.98-3.1L5.26,21.23c-0.46-0.55-0.78-1.07-0.78-1.68c0-0.61,0.26-1.22,0.77-1.68
			c1.04-0.94,2.71-0.93,3.74,0.01l4.98,4.57V3.18c0-0.59,0.26-1.13,0.7-1.52c0.47-0.43,1.15-0.67,1.88-0.62
			c1.25,0.09,2.17,1.11,2.17,2.25v7.62c0-0.53,0.24-1.01,0.63-1.36c0.38-0.35,0.92-0.56,1.5-0.56c1.18,0,2.13,0.86,2.13,1.92v1.45
			c0-0.53,0.24-1.01,0.63-1.36c0.39-0.35,0.92-0.57,1.51-0.57c1.17,0,2.13,0.86,2.13,1.93V14.04z"/>
	</g>
	<g>
		<g id="XMLID_23_">
			<g>
				<g>
					<path class="st1" d="M22.99,12.9c-0.3,0-0.54-0.24-0.54-0.54v-1.45c0-0.76-0.72-1.39-1.59-1.39c-0.44,0-0.85,0.15-1.14,0.42
						c-0.29,0.27-0.45,0.61-0.45,0.97c0,0.3-0.24,0.54-0.54,0.54c-0.3,0-0.54-0.24-0.54-0.54c0-0.67,0.29-1.29,0.8-1.76
						c0.48-0.44,1.16-0.7,1.86-0.7c1.47,0,2.67,1.1,2.67,2.46v1.45C23.52,12.66,23.28,12.9,22.99,12.9z"/>
				</g>
				<g>
					<path class="st1" d="M22.99,19.7c-0.3,0-0.54-0.24-0.54-0.54v-3.45c0-0.3,0.24-0.54,0.54-0.54c0.3,0,0.54,0.24,0.54,0.54v3.45
						C23.52,19.46,23.28,19.7,22.99,19.7z"/>
				</g>
				<g>
					<path class="st1" d="M22.99,16.24c-0.3,0-0.54-0.24-0.54-0.54v-3.35c0-0.67,0.29-1.29,0.8-1.76c0.5-0.45,1.17-0.7,1.87-0.7
						c1.47,0,2.67,1.11,2.67,2.47v1.68c0,0.3-0.24,0.54-0.54,0.54c-0.3,0-0.54-0.24-0.54-0.54v-1.68c0-0.77-0.72-1.39-1.59-1.39
						c-0.44,0-0.84,0.15-1.15,0.43c-0.29,0.26-0.45,0.61-0.45,0.97v3.35C23.52,16,23.28,16.24,22.99,16.24z"/>
				</g>
				<g>
					<path class="st1" d="M27.25,21.01c-0.3,0-0.54-0.24-0.54-0.54v-2.62c0-0.3,0.24-0.54,0.54-0.54c0.3,0,0.54,0.24,0.54,0.54v2.62
						C27.79,20.77,27.55,21.01,27.25,21.01z"/>
				</g>
				<g>
					<path class="st1" d="M22.1,35.5c-3.39,0-6.44-1.19-8.37-3.27L4.85,21.58c-0.45-0.54-0.91-1.2-0.91-2.02
						c0-0.79,0.34-1.52,0.95-2.08c1.23-1.12,3.23-1.11,4.46,0.01l4.08,3.75V3.18c0-0.73,0.31-1.41,0.88-1.92
						c0.59-0.54,1.42-0.81,2.28-0.75c1.5,0.11,2.67,1.33,2.67,2.78v14.74c0,0.3-0.24,0.54-0.54,0.54c-0.3,0-0.54-0.24-0.54-0.54
						V3.29c0-0.89-0.74-1.64-1.68-1.71c-0.57-0.04-1.1,0.13-1.48,0.48c-0.34,0.3-0.53,0.7-0.53,1.12v19.28
						c0,0.21-0.13,0.41-0.32,0.49c-0.19,0.09-0.42,0.05-0.58-0.1l-4.98-4.57c-0.83-0.76-2.18-0.76-3.01,0
						c-0.38,0.35-0.6,0.8-0.6,1.28c0,0.39,0.19,0.78,0.66,1.34l8.86,10.63c1.71,1.84,4.48,2.9,7.57,2.9c8.02,0,8.88-9.57,8.88-13.68
						v-6.71c0-0.77-0.72-1.39-1.59-1.39c-0.44,0-0.85,0.15-1.15,0.43c-0.29,0.26-0.45,0.61-0.45,0.97v3.81
						c0,0.3-0.24,0.54-0.54,0.54c-0.3,0-0.54-0.24-0.54-0.54v-3.81c0-0.67,0.29-1.29,0.8-1.76c0.5-0.45,1.17-0.7,1.87-0.7
						c1.47,0,2.67,1.11,2.67,2.47v6.71C32.06,25.18,31.09,35.5,22.1,35.5z"/>
				</g>
			</g>
		</g>
	</g>
</g>
</svg>
