<svg xmlns="http://www.w3.org/2000/svg" width="26" height="21" viewBox="0 0 26 21"><g><g><g><path fill="#fff" d="M2.522 14.107h-.384c-.176.001-.255-.105-.273-.262-.012-.108-.002-.219-.002-.329V2.256c0-.091-.005-.183.001-.274.013-.19.103-.276.301-.287.11-.006.22-.002.33-.002h21.64c.445.005.467.022.467.454v11.48c0 .09.029.196-.007.27a.404.404 0 0 1-.215.201c-.118.034-.254.009-.382.009h-10.82zm-1.648.11c.236.032.07.259.197.387.382.387.804.603 1.35.603 7.208-.003 14.415-.003 21.623 0 .546 0 .968-.216 1.35-.603.127-.128-.039-.355.197-.387V1.693c-.184-.02-.074-.167-.111-.25-.158-.348-.714-.72-1.099-.738-.091-.004-.183 0-.274 0-7.25 0-14.5 0-21.748-.003-.233 0-.448.043-.67.105-.398.11-.575.397-.707.744-.02.053-.071.095-.108.142v12.524z"/></g><g><path fill="#fff" d="M14.386 18.539c0 .623-.46 1.072-1.062 1.06-.499-.01-.912-.504-.919-1.075a.9.9 0 0 1 .253-.662c.202-.216.498-.316.731-.32.232-.002.53.099.734.308.196.201.3.428.263.689zm-13.512.182c.252.329.252.33.732.33h9.274c.128 0 .256.003.384-.002.154-.005.224.09.264.217.021.065.004.152.04.201.281.378.534.786 1.03.93.412.119.788.242 1.254.103.59-.177 1.034-.455 1.303-1.006.218-.443.218-.444.705-.444h8.999c.48 0 .48 0 .732-.33v-.329c-.172.022-.093-.204-.273-.254a1.919 1.919 0 0 0-.514-.072c-3.074-.005-6.148-.004-9.222 0-.196 0-.308.006-.338-.265-.024-.216-.208-.433-.367-.607-.163-.177-.364-.383-.582-.432-.417-.096-.806-.308-1.293-.147-.602.198-1.12.409-1.37 1.052-.157.406-.188.395-.639.395H1.607c-.375.001-.486.052-.733.33z"/></g><g><path fill="#fff" d="M11.31 7.917c0-.75 0-1.498.003-2.247 0-.044.032-.113.065-.125.038-.013.105.01.141.041.467.39.984.709 1.477 1.06.536.384 1.053.793 1.61 1.148.152.096.135.144-.042.272-.55.395-1.094.797-1.645 1.19-.479.34-.964.672-1.445 1.008-.042.03-.078.066-.117.1-.016-.049-.044-.097-.045-.145-.003-.585-.002-1.17-.002-1.754v-.548zm-.988.027c0 1.096.01 2.193-.008 3.289-.004.274.1.439.314.567.208.124.359.02.524-.106.148-.111.344-.163.483-.282.678-.577 1.439-1.042 2.156-1.563.652-.474 1.285-.987 1.997-1.38.108-.06.188-.173.273-.269.114-.128.125-.362.007-.48a4.378 4.378 0 0 0-.482-.422c-.291-.216-.594-.417-.89-.627-.481-.34-.963-.679-1.44-1.024-.45-.326-.891-.667-1.346-.987-.294-.208-.599-.4-.91-.58-.244-.14-.413-.05-.577.177-.11.152-.1.297-.1.453-.003 1.078-.002 2.156-.002 3.234z"/></g></g></g></svg>